<?xml version="1.0" encoding="UTF-8" standalone="no"?>
<!-- Generator: Adobe Illustrator 25.1.0, SVG Export Plug-In . SVG Version: 6.00 Build 0)  -->

<svg
   version="1.1"
   id="Layer_1"
   x="0px"
   y="0px"
   width="396.79999"
   height="74.5"
   viewBox="0 0 396.79997 74.499997"
   xml:space="preserve"
   sodipodi:docname="clicksight-logo.svg"
   inkscape:version="1.1.1 (3bf5ae0d25, 2021-09-20)"
   xmlns:inkscape="http://www.inkscape.org/namespaces/inkscape"
   xmlns:sodipodi="http://sodipodi.sourceforge.net/DTD/sodipodi-0.dtd"
   xmlns:xlink="http://www.w3.org/1999/xlink"
   xmlns="http://www.w3.org/2000/svg"
   xmlns:svg="http://www.w3.org/2000/svg"
   xmlns:ns="&amp;ns_sfw;"><defs
   id="defs501" /><sodipodi:namedview
   id="namedview499"
   pagecolor="#ffffff"
   bordercolor="#666666"
   borderopacity="1.0"
   inkscape:pageshadow="2"
   inkscape:pageopacity="0.0"
   inkscape:pagecheckerboard="0"
   showgrid="false"
   inkscape:zoom="1.4129475"
   inkscape:cx="48.480214"
   inkscape:cy="119.25425"
   inkscape:window-width="1920"
   inkscape:window-height="1009"
   inkscape:window-x="1912"
   inkscape:window-y="-8"
   inkscape:window-maximized="1"
   inkscape:current-layer="Layer_1"
   fit-margin-top="0"
   fit-margin-left="0"
   fit-margin-right="0"
   fit-margin-bottom="0" />
<style
   type="text/css"
   id="style256">
	.st0{fill:#FCB318;}
	.st1{fill:#FAA81C;}
	.st2{fill:#D15627;}
	.st3{clip-path:url(#SVGID_2_);fill:#FEC242;}
	.st4{opacity:0.5;clip-path:url(#SVGID_2_);}
	.st5{clip-path:url(#SVGID_4_);fill:#FFCE68;}
	.st6{clip-path:url(#SVGID_2_);fill:#FFCE68;}
	.st7{clip-path:url(#SVGID_2_);}
	.st8{clip-path:url(#SVGID_6_);}
	.st9{clip-path:url(#SVGID_8_);fill:url(#SVGID_9_);}
	.st10{clip-path:url(#SVGID_11_);}
	.st11{clip-path:url(#SVGID_13_);fill:url(#SVGID_14_);}
	.st12{opacity:0.65;clip-path:url(#SVGID_2_);}
	.st13{clip-path:url(#SVGID_16_);fill:#FDF16C;}
	.st14{opacity:0.53;}
	.st15{clip-path:url(#SVGID_18_);fill:#BA282F;}
	.st16{clip-path:url(#SVGID_20_);fill:#D15627;}
	.st17{fill:#FEC242;}
	.st18{clip-path:url(#SVGID_22_);fill:#FEC242;}
	.st19{opacity:0.5;clip-path:url(#SVGID_22_);}
	.st20{clip-path:url(#SVGID_24_);fill:#FFCE68;}
	.st21{clip-path:url(#SVGID_22_);fill:#FFCE68;}
	.st22{clip-path:url(#SVGID_22_);}
	.st23{clip-path:url(#SVGID_26_);}
	.st24{clip-path:url(#SVGID_28_);fill:url(#SVGID_29_);}
	.st25{clip-path:url(#SVGID_31_);}
	.st26{clip-path:url(#SVGID_33_);fill:url(#SVGID_34_);}
	.st27{opacity:0.65;clip-path:url(#SVGID_22_);}
	.st28{clip-path:url(#SVGID_36_);fill:#FDF16C;}
	.st29{fill:#77797C;}
</style>
<metadata
   id="metadata258">
	<ns:sfw>
		<ns:slices />
		<ns:sliceSourceBounds
   bottomLeftOrigin="true"
   height="152.3"
   width="416.3"
   x="-1695.2"
   y="210.8" />
	</ns:sfw>
</metadata>
<g
   id="g496"
   transform="translate(-85,-256.9)">
	<g
   id="g494">
		<g
   id="g492">
			<polygon
   class="st0"
   points="149.3,316.3 103.8,282.4 85,310 93.4,316.3 "
   id="polygon260" />
			<polygon
   class="st1"
   points="149.3,316.3 103.8,282.4 94,296.8 105.3,316.3 "
   id="polygon262" />
			<polygon
   class="st2"
   points="105.3,316.3 94,296.8 85,310 93.4,316.3 "
   id="polygon264" />
			<g
   id="g350">
				<defs
   id="defs267">
					<polygon
   id="SVGID_1_"
   points="149.3,316.3 103.8,282.4 85,310 93.4,316.3 " />
				</defs>
				<clipPath
   id="SVGID_2_">
					<use
   xlink:href="#SVGID_1_"
   style="overflow:visible"
   id="use269"
   x="0"
   y="0"
   width="100%"
   height="100%" />
				</clipPath>
				<path
   class="st3"
   d="m 176.8,263.3 c -9.8,20.8 -30.9,35.1 -55.4,35.1 -11.6,0 -22.4,-3.2 -31.6,-8.8 l 19.7,34.1 h 51.1 l 25.5,-44.2 z"
   clip-path="url(#SVGID_2_)"
   id="path272" />
				<g
   class="st4"
   clip-path="url(#SVGID_2_)"
   id="g284">
					<g
   id="g282">
						<defs
   id="defs275">
							<rect
   id="SVGID_3_"
   x="75"
   y="279.5"
   width="129.60001"
   height="60.200001" />
						</defs>
						<clipPath
   id="SVGID_4_">
							<use
   xlink:href="#SVGID_3_"
   style="overflow:visible"
   id="use277"
   x="0"
   y="0"
   width="100%"
   height="100%" />
						</clipPath>
						<polygon
   class="st5"
   points="160.6,323.7 109.6,323.7 89.9,289.6 75,295.8 100.3,339.7 169.9,339.7 204.6,279.5 186.2,279.5 "
   clip-path="url(#SVGID_4_)"
   id="polygon280" />
					</g>
				</g>
				<polygon
   class="st6"
   points="204.6,279.5 186.2,279.5 176.8,263.3 191.6,256.8 "
   clip-path="url(#SVGID_2_)"
   id="polygon286" />
				<g
   class="st7"
   clip-path="url(#SVGID_2_)"
   id="g311">
					<g
   id="g309">
						<defs
   id="defs289">
							<rect
   id="SVGID_5_"
   x="109.6"
   y="236.3"
   width="75"
   height="87.400002" />
						</defs>
						<clipPath
   id="SVGID_6_">
							<use
   xlink:href="#SVGID_5_"
   style="overflow:visible"
   id="use291"
   x="0"
   y="0"
   width="100%"
   height="100%" />
						</clipPath>
						<g
   class="st8"
   clip-path="url(#SVGID_6_)"
   id="g307">
							<defs
   id="defs295">
								<polygon
   id="SVGID_7_"
   points="159.2,323.7 184.5,279.5 159.8,236.3 109.6,323.7 " />
							</defs>
							<clipPath
   id="SVGID_8_">
								<use
   xlink:href="#SVGID_7_"
   style="overflow:visible"
   id="use297"
   x="0"
   y="0"
   width="100%"
   height="100%" />
							</clipPath>
							
								<linearGradient
   id="SVGID_9_"
   gradientUnits="userSpaceOnUse"
   x1="1752.0494"
   y1="582.16992"
   x2="1753.0494"
   y2="582.16992"
   gradientTransform="matrix(50.3792,-87.2594,-87.2594,-50.3792,-37348.355,182541.06)">
								<stop
   offset="0"
   style="stop-color:#E45E25"
   id="stop300" />
								<stop
   offset="1"
   style="stop-color:#FAA81C"
   id="stop302" />
							</linearGradient>
							<polygon
   class="st9"
   points="222.4,258.2 165.8,356.2 71.7,301.9 128.3,203.9 "
   clip-path="url(#SVGID_8_)"
   id="polygon305"
   style="fill:url(#SVGID_9_)" />
						</g>
					</g>
				</g>
				<g
   class="st4"
   clip-path="url(#SVGID_2_)"
   id="g336">
					<g
   id="g334">
						<defs
   id="defs314">
							<rect
   id="SVGID_10_"
   x="84"
   y="235.2"
   width="75.800003"
   height="88.5" />
						</defs>
						<clipPath
   id="SVGID_11_">
							<use
   xlink:href="#SVGID_10_"
   style="overflow:visible"
   id="use316"
   x="0"
   y="0"
   width="100%"
   height="100%" />
						</clipPath>
						<g
   class="st10"
   clip-path="url(#SVGID_11_)"
   id="g332">
							<defs
   id="defs320">
								<polygon
   id="SVGID_12_"
   points="84,279.5 109.6,323.7 159.8,236.3 109.6,235.2 " />
							</defs>
							<clipPath
   id="SVGID_13_">
								<use
   xlink:href="#SVGID_12_"
   style="overflow:visible"
   id="use322"
   x="0"
   y="0"
   width="100%"
   height="100%" />
							</clipPath>
							
								<linearGradient
   id="SVGID_14_"
   gradientUnits="userSpaceOnUse"
   x1="1737.5435"
   y1="566.92902"
   x2="1738.5435"
   y2="566.92902"
   gradientTransform="matrix(75.7537,0,0,-75.7537,-131541.28,43226.414)">
								<stop
   offset="0"
   style="stop-color:#E45E25"
   id="stop325" />
								<stop
   offset="1"
   style="stop-color:#FAA81C"
   id="stop327" />
							</linearGradient>
							<rect
   x="84"
   y="235.2"
   class="st11"
   width="75.800003"
   height="88.5"
   clip-path="url(#SVGID_13_)"
   id="rect330"
   style="fill:url(#SVGID_14_)" />
						</g>
					</g>
				</g>
				<g
   class="st12"
   clip-path="url(#SVGID_2_)"
   id="g348">
					<g
   id="g346">
						<defs
   id="defs339">
							<rect
   id="SVGID_15_"
   x="109.6"
   y="219.2"
   width="95.099998"
   height="120.5" />
						</defs>
						<clipPath
   id="SVGID_16_">
							<use
   xlink:href="#SVGID_15_"
   style="overflow:visible"
   id="use341"
   x="0"
   y="0"
   width="100%"
   height="100%" />
						</clipPath>
						<polygon
   class="st13"
   points="185.5,280.7 161.4,322.7 169.9,339.7 160.6,323.7 159.2,323.7 184.5,279.5 159.8,236.3 109.6,235.2 160.6,235.2 169.9,219.2 161.2,236.3 186.2,279.5 204.6,279.5 "
   clip-path="url(#SVGID_16_)"
   id="polygon344" />
					</g>
				</g>
			</g>
			<g
   id="g364">
				<g
   class="st14"
   id="g362">
					<g
   id="g360">
						<defs
   id="defs353">
							<rect
   id="SVGID_17_"
   x="85"
   y="282.39999"
   width="64.800003"
   height="33.900002" />
						</defs>
						<clipPath
   id="SVGID_18_">
							<use
   xlink:href="#SVGID_17_"
   style="overflow:visible"
   id="use355"
   x="0"
   y="0"
   width="100%"
   height="100%" />
						</clipPath>
						<polygon
   class="st15"
   points="93.4,316.3 85,310 103.8,282.4 149.8,316.3 "
   clip-path="url(#SVGID_18_)"
   id="polygon358" />
					</g>
				</g>
			</g>
			<polygon
   class="st0"
   points="149.8,316.3 190,256.9 151.4,256.9 110.1,316.3 "
   id="polygon366" />
			<polygon
   class="st1"
   points="110.1,316.3 149.8,316.3 180.9,270.4 173.2,256.9 151.4,256.9 "
   id="polygon368" />
			<g
   id="g378">
				<defs
   id="defs371">
					<polygon
   id="SVGID_19_"
   points="149.8,316.3 190,256.9 151.4,256.9 110.1,316.3 " />
				</defs>
				<clipPath
   id="SVGID_20_">
					<use
   xlink:href="#SVGID_19_"
   style="overflow:visible"
   id="use373"
   x="0"
   y="0"
   width="100%"
   height="100%" />
				</clipPath>
				<polygon
   class="st16"
   points="84,279.5 65.5,279.5 100.3,339.7 109.6,323.7 "
   clip-path="url(#SVGID_20_)"
   id="polygon376" />
			</g>
			<polygon
   class="st17"
   points="173.2,256.9 180.9,270.4 190,256.9 "
   id="polygon380" />
			<g
   id="g466">
				<defs
   id="defs383">
					<polygon
   id="SVGID_21_"
   points="149.8,316.3 190,256.9 151.4,256.9 110.1,316.3 " />
				</defs>
				<clipPath
   id="SVGID_22_">
					<use
   xlink:href="#SVGID_21_"
   style="overflow:visible"
   id="use385"
   x="0"
   y="0"
   width="100%"
   height="100%" />
				</clipPath>
				<path
   class="st18"
   d="m 176.8,263.3 c -9.8,20.8 -30.9,35.1 -55.4,35.1 -11.6,0 -22.4,-3.2 -31.6,-8.8 l 19.7,34.1 h 51.1 l 25.5,-44.2 z"
   clip-path="url(#SVGID_22_)"
   id="path388" />
				<g
   class="st19"
   clip-path="url(#SVGID_22_)"
   id="g400">
					<g
   id="g398">
						<defs
   id="defs391">
							<rect
   id="SVGID_23_"
   x="75"
   y="279.5"
   width="129.60001"
   height="60.200001" />
						</defs>
						<clipPath
   id="SVGID_24_">
							<use
   xlink:href="#SVGID_23_"
   style="overflow:visible"
   id="use393"
   x="0"
   y="0"
   width="100%"
   height="100%" />
						</clipPath>
						<polygon
   class="st20"
   points="160.6,323.7 109.6,323.7 89.9,289.6 75,295.8 100.3,339.7 169.9,339.7 204.6,279.5 186.2,279.5 "
   clip-path="url(#SVGID_24_)"
   id="polygon396" />
					</g>
				</g>
				<polygon
   class="st21"
   points="204.6,279.5 186.2,279.5 176.8,263.3 191.6,256.8 "
   clip-path="url(#SVGID_22_)"
   id="polygon402" />
				<g
   class="st22"
   clip-path="url(#SVGID_22_)"
   id="g427">
					<g
   id="g425">
						<defs
   id="defs405">
							<rect
   id="SVGID_25_"
   x="109.6"
   y="236.3"
   width="75"
   height="87.400002" />
						</defs>
						<clipPath
   id="SVGID_26_">
							<use
   xlink:href="#SVGID_25_"
   style="overflow:visible"
   id="use407"
   x="0"
   y="0"
   width="100%"
   height="100%" />
						</clipPath>
						<g
   class="st23"
   clip-path="url(#SVGID_26_)"
   id="g423">
							<defs
   id="defs411">
								<polygon
   id="SVGID_27_"
   points="159.2,323.7 184.5,279.5 159.8,236.3 109.6,323.7 " />
							</defs>
							<clipPath
   id="SVGID_28_">
								<use
   xlink:href="#SVGID_27_"
   style="overflow:visible"
   id="use413"
   x="0"
   y="0"
   width="100%"
   height="100%" />
							</clipPath>
							
								<linearGradient
   id="SVGID_29_"
   gradientUnits="userSpaceOnUse"
   x1="1752.0494"
   y1="582.16992"
   x2="1753.0494"
   y2="582.16992"
   gradientTransform="matrix(50.3792,-87.2594,-87.2594,-50.3792,-37348.355,182541.06)">
								<stop
   offset="0"
   style="stop-color:#E45E25"
   id="stop416" />
								<stop
   offset="1"
   style="stop-color:#FAA81C"
   id="stop418" />
							</linearGradient>
							<polygon
   class="st24"
   points="222.4,258.2 165.8,356.2 71.7,301.9 128.3,203.9 "
   clip-path="url(#SVGID_28_)"
   id="polygon421"
   style="fill:url(#SVGID_29_)" />
						</g>
					</g>
				</g>
				<g
   class="st19"
   clip-path="url(#SVGID_22_)"
   id="g452">
					<g
   id="g450">
						<defs
   id="defs430">
							<rect
   id="SVGID_30_"
   x="84"
   y="235.2"
   width="75.800003"
   height="88.5" />
						</defs>
						<clipPath
   id="SVGID_31_">
							<use
   xlink:href="#SVGID_30_"
   style="overflow:visible"
   id="use432"
   x="0"
   y="0"
   width="100%"
   height="100%" />
						</clipPath>
						<g
   class="st25"
   clip-path="url(#SVGID_31_)"
   id="g448">
							<defs
   id="defs436">
								<polygon
   id="SVGID_32_"
   points="84,279.5 109.6,323.7 159.8,236.3 109.6,235.2 " />
							</defs>
							<clipPath
   id="SVGID_33_">
								<use
   xlink:href="#SVGID_32_"
   style="overflow:visible"
   id="use438"
   x="0"
   y="0"
   width="100%"
   height="100%" />
							</clipPath>
							
								<linearGradient
   id="SVGID_34_"
   gradientUnits="userSpaceOnUse"
   x1="1737.5435"
   y1="566.92902"
   x2="1738.5435"
   y2="566.92902"
   gradientTransform="matrix(75.7537,0,0,-75.7537,-131541.28,43226.414)">
								<stop
   offset="0"
   style="stop-color:#E45E25"
   id="stop441" />
								<stop
   offset="1"
   style="stop-color:#FAA81C"
   id="stop443" />
							</linearGradient>
							<rect
   x="84"
   y="235.2"
   class="st26"
   width="75.800003"
   height="88.5"
   clip-path="url(#SVGID_33_)"
   id="rect446"
   style="fill:url(#SVGID_34_)" />
						</g>
					</g>
				</g>
				<g
   class="st27"
   clip-path="url(#SVGID_22_)"
   id="g464">
					<g
   id="g462">
						<defs
   id="defs455">
							<rect
   id="SVGID_35_"
   x="109.6"
   y="219.2"
   width="95.099998"
   height="120.5" />
						</defs>
						<clipPath
   id="SVGID_36_">
							<use
   xlink:href="#SVGID_35_"
   style="overflow:visible"
   id="use457"
   x="0"
   y="0"
   width="100%"
   height="100%" />
						</clipPath>
						<polygon
   class="st28"
   points="185.5,280.7 161.4,322.7 169.9,339.7 160.6,323.7 159.2,323.7 184.5,279.5 159.8,236.3 109.6,235.2 160.6,235.2 169.9,219.2 161.2,236.3 186.2,279.5 204.6,279.5 "
   clip-path="url(#SVGID_36_)"
   id="polygon460" />
					</g>
				</g>
			</g>
			<g
   id="g490">
				<path
   class="st29"
   d="m 185.3,303.1 v -7.9 c 0,-5 1.2,-8.5 3.7,-10.8 2.5,-2.2 6.5,-3.3 12.1,-3.3 2.5,0 5.3,0.4 8.4,1.1 l -1.3,8.5 c -2.5,-0.6 -4.9,-0.9 -7.1,-0.9 -2,0 -3.5,0.4 -4.3,1.3 -0.9,0.8 -1.3,2.2 -1.3,4 v 8.2 c 0,1.8 0.4,3.1 1.3,4 0.9,0.8 2.3,1.2 4.3,1.2 2.1,0 4.5,-0.3 7.1,-0.9 l 1.3,8.6 c -3,0.7 -5.8,1 -8.4,1 -5.6,0 -9.7,-1.1 -12.1,-3.3 -2.4,-2.3 -3.7,-5.9 -3.7,-10.8"
   id="path468" />
				<polygon
   class="st29"
   points="226.6,266.2 226.6,316.4 216.3,316.4 216.3,267.6 "
   id="polygon470" />
				<path
   class="st29"
   d="m 235.8,267.5 h 10.3 v 10 h -10.3 z m 0,14.3 h 10.3 v 34.6 h -10.3 z"
   id="path472" />
				<path
   class="st29"
   d="m 253.2,303.1 v -7.9 c 0,-5 1.2,-8.5 3.7,-10.8 2.5,-2.2 6.5,-3.3 12.1,-3.3 2.5,0 5.3,0.4 8.4,1.1 l -1.3,8.5 c -2.5,-0.6 -4.9,-0.9 -7.1,-0.9 -2,0 -3.5,0.4 -4.3,1.3 -0.9,0.8 -1.3,2.2 -1.3,4 v 8.2 c 0,1.8 0.4,3.1 1.3,4 0.9,0.8 2.3,1.2 4.3,1.2 2.1,0 4.5,-0.3 7.1,-0.9 l 1.3,8.6 c -3,0.7 -5.8,1 -8.4,1 -5.6,0 -9.7,-1.1 -12.1,-3.3 -2.5,-2.3 -3.7,-5.9 -3.7,-10.8"
   id="path474" />
				<path
   class="st29"
   d="m 284.2,316.4 v -48.8 l 10.3,-1.4 v 50.3 h -10.3 z m 11.6,-17.4 8.8,-17.2 h 10.9 l -9.1,17.2 9.6,17.4 h -11 z"
   id="path476" />
				<path
   class="st29"
   d="m 319.9,315.1 1.6,-7.6 c 3.4,1 6.9,1.6 10.5,1.6 1.5,0 2.4,-0.2 2.8,-0.6 0.4,-0.4 0.7,-1.2 0.7,-2.3 0,-0.6 0,-1.1 -0.1,-1.4 0,-0.3 -0.3,-0.5 -0.7,-0.9 -0.4,-0.3 -0.9,-0.6 -1.6,-0.8 -0.7,-0.2 -1.8,-0.5 -3.2,-0.8 -1.7,-0.4 -3.1,-0.9 -4.2,-1.3 -1.1,-0.5 -2,-1 -2.7,-1.5 -0.7,-0.5 -1.2,-1.2 -1.5,-2 -0.3,-0.8 -0.6,-1.7 -0.7,-2.5 -0.1,-0.9 -0.2,-2 -0.2,-3.4 0,-1.9 0.2,-3.5 0.6,-4.7 0.4,-1.3 1.1,-2.3 2.1,-3.2 1,-0.9 2.4,-1.5 4.1,-1.9 1.7,-0.4 3.9,-0.6 6.5,-0.6 4.1,0 7.6,0.4 10.6,1.1 l -0.9,8 c -3.6,-0.6 -6.7,-1 -9.5,-1 -1.4,0 -2.4,0.2 -2.9,0.5 -0.5,0.4 -0.8,1 -0.8,1.8 0,1.1 0.2,1.8 0.7,2.1 0.4,0.3 1.7,0.8 3.7,1.2 1.7,0.4 3.1,0.7 4.2,1.1 1.1,0.4 2.1,0.8 2.9,1.3 0.8,0.5 1.4,1 1.9,1.5 0.5,0.5 0.8,1.1 1,1.9 0.2,0.8 0.4,1.6 0.5,2.4 0.1,0.8 0.1,1.8 0.1,3.1 0,3.8 -1,6.5 -2.9,8.3 -1.9,1.8 -5.3,2.7 -10,2.7 -1.9,0 -4,-0.2 -6.4,-0.6 -2.4,-0.5 -4.5,-0.9 -6.2,-1.5"
   id="path478" />
				<path
   class="st29"
   d="m 352.5,267.5 h 10.3 v 10 h -10.3 z m 0,14.3 h 10.3 v 34.6 h -10.3 z"
   id="path480" />
				<path
   class="st29"
   d="m 369.9,329.4 1.5,-7.5 c 3.9,0.9 7.7,1.4 11.4,1.4 2.9,0 4.8,-0.1 5.9,-0.4 1,-0.3 1.6,-1 1.6,-2.1 0,-0.7 -0.2,-1.1 -0.6,-1.4 -0.4,-0.2 -1.1,-0.4 -2.1,-0.5 -1.1,-0.1 -2.1,-0.2 -2.9,-0.3 -0.8,-0.1 -1.7,-0.2 -2.7,-0.3 -1,-0.1 -2.1,-0.2 -3.2,-0.3 -1.3,-0.1 -2.4,-0.3 -3.2,-0.5 -0.8,-0.2 -1.6,-0.5 -2.3,-1 -0.7,-0.5 -1.2,-1.1 -1.5,-1.8 -0.3,-0.8 -0.5,-1.7 -0.5,-2.9 0,-2.2 1,-4.3 3,-6.3 -2.9,-1.7 -4.4,-4.7 -4.4,-8.9 v -4.2 c 0.1,-3.7 1.2,-6.5 3.5,-8.4 2.2,-1.9 5.8,-2.9 10.7,-2.9 1.9,0 3.9,0.2 5.9,0.7 h 10.8 v 4.8 l -3.5,1.3 c 0.6,1.3 0.9,2.8 0.9,4.5 v 4.2 c 0,3.4 -1.2,6.1 -3.6,8.1 -2.4,2 -5.9,3 -10.5,3 h -1 c -0.3,0.2 -0.6,0.3 -0.7,0.5 -0.2,0.1 -0.3,0.3 -0.5,0.6 -0.2,0.3 -0.3,0.6 -0.3,0.9 0,0.4 0.1,0.7 0.3,1 0.2,0.3 0.5,0.4 0.8,0.5 4.6,0.5 7.5,0.8 8.5,0.9 3,0.3 5.2,1 6.5,2.2 1.3,1.2 2,3.3 2,6.2 0,4 -1.3,6.9 -3.8,8.5 -2.5,1.6 -6.6,2.4 -12.1,2.4 -1.9,0 -4.2,-0.2 -6.7,-0.5 -2.7,-0.5 -5.1,-0.9 -7.2,-1.5 m 9.5,-33.4 c 0,1.2 0.4,2.1 1.1,2.6 0.7,0.5 1.9,0.8 3.6,0.8 1.6,0 2.8,-0.3 3.5,-0.8 0.7,-0.5 1.1,-1.4 1.1,-2.6 v -3.3 c 0,-1.2 -0.4,-2.1 -1.1,-2.7 -0.7,-0.6 -1.9,-0.9 -3.5,-0.9 -1.6,0 -2.8,0.3 -3.6,0.9 -0.7,0.6 -1.1,1.5 -1.1,2.7 z"
   id="path482" />
				<path
   class="st29"
   d="m 406.4,316.4 v -48.8 l 10.1,-1.4 v 18.1 c 4.7,-2.1 8.8,-3.2 12.4,-3.2 5.3,0 8,3.7 8,11.1 v 24.3 h -10.3 v -22.9 c 0,-1.7 -0.8,-2.5 -2.5,-2.5 -0.9,0 -2,0.3 -3.4,0.8 -1.4,0.5 -2.8,1.1 -4,1.8 v 22.8 h -10.3 z"
   id="path484" />
				<path
   class="st29"
   d="m 442.2,289.9 v -8.1 h 4.7 v -8.3 l 10.3,-1.4 v 9.8 h 7.9 l -0.6,8.1 h -7.3 v 16.9 c 0,1.3 0.7,1.9 2.1,1.9 1.5,0 2.9,-0.2 4.3,-0.7 l 1.2,7.8 c -2.4,0.8 -4.9,1.3 -7.4,1.3 -3.4,0 -6,-0.7 -7.8,-2.1 -1.8,-1.4 -2.7,-3.7 -2.7,-6.8 V 290 h -4.7 z"
   id="path486" />
				<rect
   x="471.39999"
   y="304.39999"
   class="st1"
   width="10.4"
   height="12"
   id="rect488" />
			</g>
		</g>
	</g>
</g>
</svg>
